Inverse Dynamics Generalized Forces
version=1
nRows=8
nColumns=34
inDegrees=no
endheader 
time	pelvis_tilt_moment	pelvis_list_moment	pelvis_rotation_moment	pelvis_tx_force	pelvis_ty_force	pelvis_tz_force	hip_flexion_l_moment	hip_adduction_l_moment	hip_rotation_l_moment	hip_flexion_r_moment	hip_adduction_r_moment	hip_rotation_r_moment	knee_angle_l_moment	knee_angle_r_moment	ankle_angle_l_moment	ankle_angle_r_moment	subtalar_angle_l_moment	subtalar_angle_r_moment	mtp_angle_l_moment	mtp_angle_r_moment	lumbar_extension_moment	lumbar_bending_moment	lumbar_rotation_moment	arm_flex_l_moment	arm_add_l_moment	arm_rot_l_moment	arm_flex_r_moment	arm_add_r_moment	arm_rot_r_moment	elbow_flex_l_moment	elbow_flex_r_moment	pro_sup_l_moment	pro_sup_r_moment	
          0.57000000	          0.00000002	          0.00000014	         -0.00000002	          0.00000004	          0.00000079	         -0.00000014	        -26.53636800	        -48.89020022	         -4.03805685	         34.00812849	         -4.17808986	         -1.79214072	         31.58377848	        -14.61265714	        -56.71202102	          5.28656058	         10.51016877	         -0.31380778	          8.73773691	         -0.03100550	          7.78804720	         26.68304877	          0.31918585	         -0.13728461	          1.38648927	          0.25132040	          0.00726880	         -2.26872129	         -0.19799138	          0.76679820	          0.30788677	          0.01315027	         -0.01612773	
          0.58000000	         -0.00000015	          0.00000015	         -0.00000001	          0.00000006	          0.00000085	         -0.00000015	        -33.90104101	        -46.08854790	         -4.01576021	         40.94032400	         -4.10694824	         -2.17859818	         36.40316761	        -18.72707563	        -58.23536418	          6.10404488	         10.82673362	         -0.31568771	          8.86932734	         -0.03022782	          8.59577969	         29.13629428	         -0.45215421	          0.03243215	          1.33458980	          0.24768688	          0.21691355	         -2.23964208	         -0.21743025	          0.82090429	          0.40085596	          0.01294748	         -0.01919011	
          0.59000000	         -0.00000003	          0.00000022	         -0.00000002	         -0.00000013	          0.00000075	         -0.00000025	        -34.87630992	        -43.24756970	         -3.62530663	         41.28316505	         -4.06832800	         -2.02367004	         37.95491173	        -18.56622716	        -59.42064198	          5.89556031	         11.27289807	         -0.30254745	          9.01518674	         -0.03146724	          9.56819043	         33.43840485	          0.23752903	          0.00085329	          0.72041563	          0.16211132	          0.53729343	         -1.70223622	         -0.16888891	          0.73353581	          0.60640676	          0.00788178	         -0.01843297	
          0.60000000	          0.00000007	          0.00000026	         -0.00000003	          0.00000022	          0.00000081	         -0.00000021	        -28.07087278	        -41.53807837	         -2.98826058	         34.65023172	         -3.30259800	         -1.53446366	         35.24726247	        -14.72419527	        -60.31069694	          4.99463997	         11.99619208	         -0.30673536	          9.17979317	         -0.03302937	         10.02759546	         35.32030518	          1.72782437	         -0.24447669	          0.64256333	          0.16092501	          1.14954576	         -1.71885272	         -0.20445297	          0.68451420	          0.77107022	          0.00762097	         -0.02273727	
          0.61000000	         -0.00000005	          0.00000037	         -0.00000001	         -0.00000003	          0.00000077	         -0.00000035	        -17.93010112	        -40.30705113	         -2.23791559	         25.22520640	         -2.72454960	         -0.96991642	         30.57244402	         -9.57730482	        -61.09891727	          3.84417594	         12.74046031	         -0.30537594	          9.36536561	         -0.03455110	         10.28479461	         37.79793588	          4.12579683	         -0.57581707	          0.18874738	          0.10052982	          1.81767207	         -1.43241559	         -0.19775588	          0.55110787	          1.00042857	          0.00356892	         -0.02453765	
          0.62000000	          0.00000008	          0.00000038	         -0.00000003	          0.00000016	          0.00000083	         -0.00000036	         -7.00841381	        -39.69097551	         -1.48903875	         15.34215283	         -1.15359977	         -0.48306565	         25.18651465	         -4.39556946	        -62.06018141	          2.73634626	         13.49763794	         -0.28455574	          9.58697078	         -0.03562458	         10.46124379	         37.97369149	          5.97369426	         -0.83203383	          0.20014464	          0.10562457	          2.37645809	         -1.57894955	         -0.24050419	          0.51474698	          1.12111137	          0.00291864	         -0.02857568	
          0.63000000	         -0.00000001	          0.00000037	         -0.00000001	          0.00000007	          0.00000084	         -0.00000031	          2.66836348	        -38.83613854	         -0.74448113	          6.91633445	          0.59120397	         -0.16865942	         20.18053262	         -0.27756625	        -62.94362620	          1.90966325	         14.15243518	         -0.26092924	          9.80612571	         -0.03641183	         10.52128222	         38.06419472	          7.61400741	         -1.04447951	          0.06991344	          0.08760663	          2.79084145	         -1.58456931	         -0.25666513	          0.46040279	          1.22924935	          0.00095159	         -0.03066390	
          0.64000000	          0.00000006	          0.00000037	         -0.00000003	          0.00000013	          0.00000088	         -0.00000033	         10.27964129	        -39.07630150	         -0.12036826	          0.04251579	          2.33839829	          0.01297577	         15.76947483	          2.69635341	        -63.61467651	          1.40813174	         14.52506192	         -0.24015180	         10.00227356	         -0.03532336	         10.92316126	         35.87564949	          8.51586034	         -1.17495751	          0.20109941	          0.10667323	          2.95302892	         -1.81846335	         -0.29081525	          0.45972956	          1.22960994	          0.00090791	         -0.03295381	
